<svg viewBox="0 0 128 128" xmlns="http://www.w3.org/2000/svg" style="fill: #c7c7c7;">
  <path d="M 23.078 109.391 C 20.84 109.391 18.884 108.553 17.208 106.875 C 15.53 105.197 14.691 103.24 14.691 101.003 L 14.691 28.311 C 14.691 26.074 15.53 24.117 17.208 22.439 C 18.884 20.763 20.84 19.922 23.078 19.922 L 52.435 19.922 L 52.435 28.311 L 23.078 28.311 L 23.078 101.003 L 52.435 101.003 L 52.435 109.391 L 23.078 109.391 Z M 60.821 120.574 L 60.821 8.74 L 69.21 8.74 L 69.21 19.922 L 106.954 19.922 C 109.19 19.922 111.148 20.763 112.826 22.439 C 114.502 24.117 115.341 26.074 115.341 28.311 L 115.341 101.003 C 115.341 103.24 114.502 105.197 112.826 106.875 C 111.148 108.553 109.19 109.391 106.954 109.391 L 69.21 109.391 L 69.21 120.574 L 60.821 120.574 Z M 69.21 101.003 L 106.954 101.003 L 106.954 28.311 L 69.21 28.311 L 69.21 101.003 Z M 23.078 101.003 L 23.078 28.311 L 23.078 101.003 Z M 106.954 101.003 L 106.954 28.311 L 106.954 101.003 Z" style="stroke-width: 1;"></path>
  <path d="M 27.004 96.46 L 46.87 96.46 L 46.87 92.28 L 27.004 92.28 L 27.004 96.46 Z M 27.004 84.563 L 56.334 84.563 L 56.334 80.398 L 27.004 80.398 L 27.004 84.563 Z M 27.004 72.682 L 56.334 72.682 L 56.334 68.502 L 27.004 68.502 L 27.004 72.682 Z M 26.963 60.771 L 56.293 60.771 L 56.293 56.605 L 26.963 56.605 L 26.963 60.771 Z M 26.963 48.888 L 56.293 48.888 L 56.293 44.709 L 26.963 44.709 L 26.963 48.888 Z M 26.934 37.063 L 56.262 37.063 L 56.262 32.883 L 26.934 32.883 L 26.934 37.063 Z" style="stroke-width: 1;"></path>
  <path d="M 81.214 75.799 L 71.446 66.028 L 81.294 56.171 L 83.043 57.933 L 74.946 66.028 L 82.963 74.052 L 81.214 75.799 Z M 94.153 75.869 L 92.403 74.136 L 100.5 66.028 L 92.484 58.017 L 94.235 56.269 L 104.001 66.028 L 94.153 75.869 Z" style="stroke-width: 1;"></path>
</svg>